<svg id="svg" version="1.1" xmlns="http://www.w3.org/2000/svg" xmlns:xlink="http://www.w3.org/1999/xlink" width="400" height="387.5" viewBox="0, 0, 400,387.5"><g id="svgg"><path id="path0" d="M229.925 33.690 C 227.006 36.170,206.594 43.411,202.524 43.411 C 202.450 43.411,201.461 44.203,200.328 45.170 C 199.194 46.138,197.218 47.427,195.936 48.034 C 194.654 48.642,192.928 49.872,192.102 50.768 C 190.443 52.568,187.342 54.682,184.969 55.631 C 183.459 56.235,181.622 58.437,180.108 61.458 C 178.722 64.223,175.828 66.136,171.318 67.271 C 167.189 68.309,167.070 69.624,170.935 71.470 C 174.784 73.307,179.278 79.981,180.830 86.167 C 181.034 86.979,181.480 87.234,183.655 87.780 C 186.814 88.574,190.182 90.323,191.836 92.029 L 193.072 93.304 192.593 99.850 C 191.939 108.811,190.078 111.482,183.026 113.589 C 180.357 114.387,176.671 118.027,175.623 120.902 C 174.499 123.984,173.305 125.326,170.742 126.389 C 169.031 127.098,168.363 127.661,167.258 129.325 L 165.891 131.384 167.385 132.372 C 168.573 133.159,169.187 133.317,170.389 133.145 C 186.133 130.901,202.326 135.960,202.326 143.123 C 202.326 144.106,205.639 146.787,208.527 148.141 C 211.878 149.712,213.881 151.522,215.557 154.491 C 217.045 157.128,218.154 157.900,221.318 158.501 C 225.854 159.362,229.105 161.384,230.582 164.264 L 231.279 165.621 232.097 162.559 C 233.755 156.349,233.750 156.459,232.543 153.908 C 231.810 152.358,231.073 151.403,230.299 151.004 C 225.786 148.669,224.559 144.190,227.081 139.246 C 227.917 137.608,228.198 137.350,232.946 133.853 C 234.545 132.675,235.986 131.586,236.149 131.432 C 236.311 131.278,235.936 130.117,235.314 128.851 C 232.263 122.644,232.249 118.360,235.246 108.527 C 235.864 106.502,236.749 103.541,237.214 101.948 C 238.076 98.994,239.585 95.640,240.544 94.548 C 241.009 94.018,240.863 93.791,239.392 92.754 C 235.175 89.782,233.745 85.963,233.252 76.357 C 233.061 72.626,232.671 66.609,232.385 62.984 L 231.867 56.395 233.624 49.913 L 235.381 43.431 234.696 40.611 C 233.992 37.712,232.662 34.417,231.729 33.260 C 231.242 32.657,231.103 32.690,229.925 33.690 M162.146 155.034 C 158.914 155.415,156.096 155.834,155.883 155.965 C 155.467 156.222,156.127 159.265,156.920 160.747 C 157.923 162.620,159.690 175.659,159.690 181.183 C 159.690 181.467,158.905 182.572,157.946 183.638 C 155.776 186.052,153.905 190.716,152.338 197.621 C 150.301 206.593,148.197 211.665,145.195 214.843 C 144.011 216.096,143.247 217.358,142.847 218.719 C 141.217 224.265,139.150 232.001,138.370 235.465 C 137.891 237.597,137.085 240.278,136.579 241.424 C 135.389 244.119,135.276 243.846,138.183 245.293 C 143.046 247.713,143.116 247.723,150.107 247.035 C 156.996 246.357,159.224 245.372,159.869 242.717 C 160.593 239.737,163.202 235.369,165.984 232.480 C 168.976 229.371,170.025 227.035,171.688 219.767 C 174.820 206.081,176.210 202.388,179.391 199.289 C 182.056 196.693,182.611 195.408,184.822 186.717 C 187.138 177.612,188.408 174.796,191.760 171.326 C 193.094 169.945,194.186 168.787,194.186 168.752 C 194.186 168.717,192.642 167.469,190.754 165.978 C 187.727 163.587,183.965 159.698,182.091 157.022 C 181.559 156.263,170.169 154.040,168.217 154.314 C 168.110 154.329,165.379 154.653,162.146 155.034 M255.844 200.097 C 255.658 200.577,255.138 201.893,254.689 203.022 C 254.240 204.151,253.342 207.779,252.694 211.083 C 250.526 222.131,248.731 226.871,245.487 230.114 C 243.617 231.985,242.765 234.155,241.277 240.847 L 240.605 243.865 242.029 245.323 L 243.452 246.781 249.797 247.041 C 256.653 247.322,256.742 247.309,265.441 244.700 C 268.465 243.793,268.710 243.640,269.250 242.311 C 269.567 241.530,270.684 238.886,271.732 236.434 C 272.779 233.983,274.236 229.797,274.969 227.132 C 275.702 224.467,276.578 221.517,276.916 220.576 C 277.416 219.183,277.439 218.743,277.040 218.205 C 273.911 213.988,272.204 211.338,270.574 208.164 L 268.633 204.384 265.421 202.910 C 263.655 202.100,260.853 200.939,259.196 200.331 L 256.182 199.226 255.844 200.097 M204.137 203.981 C 202.285 205.604,202.254 205.671,200.954 210.795 C 199.453 216.711,197.305 221.477,195.004 223.998 C 192.807 226.405,191.711 229.486,190.511 236.623 C 189.938 240.029,189.378 242.963,189.266 243.145 C 189.002 243.572,190.917 245.567,192.578 246.595 C 193.795 247.348,194.277 247.386,200.192 247.190 L 206.506 246.982 209.551 245.383 C 211.872 244.165,212.828 243.409,213.566 242.208 C 214.099 241.341,215.679 239.707,217.076 238.576 C 220.891 235.492,221.913 233.160,222.954 225.168 C 223.729 219.220,223.735 218.883,223.094 217.516 C 221.954 215.087,218.832 210.480,218.181 210.266 C 217.842 210.155,216.599 209.107,215.420 207.937 C 213.699 206.230,207.139 202.271,206.135 202.334 C 206.065 202.338,205.166 203.079,204.137 203.981 M228.745 288.220 C 225.775 291.552,224.937 293.359,225.504 295.210 C 226.245 297.629,228.141 300.589,229.785 301.890 L 231.314 303.102 232.522 301.219 C 236.264 295.388,236.364 293.432,233.175 288.469 C 231.277 285.514,231.162 285.508,228.745 288.220 M318.110 295.640 C 317.144 296.708,316.799 297.967,316.307 302.228 L 315.848 306.199 317.129 308.623 C 317.834 309.956,318.662 311.047,318.969 311.047 C 319.771 311.047,322.868 307.108,322.868 306.088 C 322.868 304.308,319.493 294.961,318.851 294.961 C 318.781 294.961,318.448 295.267,318.110 295.640 M142.254 355.987 L 141.291 356.520 142.642 356.773 C 143.384 356.911,144.428 356.858,144.961 356.653 L 145.930 356.281 144.839 355.854 C 143.494 355.327,143.441 355.330,142.254 355.987 M91.473 356.202 C 90.898 356.386,92.792 356.504,96.124 356.491 C 100.609 356.475,101.235 356.414,99.225 356.188 C 95.889 355.813,92.669 355.819,91.473 356.202 M341.667 356.202 C 340.796 356.423,341.185 356.502,343.217 356.516 C 345.059 356.529,345.681 356.428,345.155 356.202 C 344.227 355.803,343.233 355.803,341.667 356.202 " stroke="none" fill="#748dbd" fill-rule="evenodd"></path><path id="path1" d="M243.449 20.058 C 243.484 21.355,243.521 21.407,243.798 20.543 C 244.242 19.157,244.242 18.605,243.798 18.605 C 243.585 18.605,243.428 19.259,243.449 20.058 M229.651 27.782 C 224.971 29.626,221.214 31.331,218.617 32.788 C 214.297 35.212,209.984 36.872,201.550 39.358 C 192.966 41.888,192.921 41.910,190.299 45.048 C 187.936 47.876,185.605 49.834,182.302 51.766 C 179.700 53.288,177.389 55.383,174.457 58.878 C 173.519 59.997,171.775 61.462,170.581 62.134 C 168.228 63.459,165.421 66.116,164.507 67.883 C 163.969 68.923,164.019 69.195,165.325 72.348 C 167.483 77.562,168.128 78.653,171.019 81.977 C 174.228 85.667,177.074 91.197,178.299 96.124 C 178.750 97.936,179.647 100.969,180.293 102.863 L 181.467 106.308 178.040 109.773 C 176.155 111.678,173.276 114.360,171.644 115.731 C 169.317 117.686,168.171 119.046,166.343 122.020 C 165.061 124.106,163.039 127.073,161.850 128.612 L 159.688 131.410 161.289 133.147 C 164.869 137.031,167.282 137.631,175.401 136.658 L 181.229 135.959 184.316 136.823 C 193.195 139.308,196.065 141.004,198.055 144.948 C 199.766 148.336,200.946 149.487,204.403 151.137 C 206.959 152.357,208.260 153.335,211.251 156.283 C 214.423 159.410,215.550 160.233,219.253 162.127 C 222.743 163.912,223.921 164.745,225.444 166.504 C 226.479 167.699,228.199 169.631,229.268 170.796 L 231.210 172.916 232.553 172.011 C 235.129 170.275,235.551 169.165,237.380 159.302 C 238.123 155.300,236.352 149.944,232.660 145.021 L 231.687 143.724 233.964 141.401 C 236.540 138.773,239.670 136.270,242.264 134.764 C 246.422 132.350,246.448 130.995,242.423 126.719 C 239.397 123.505,237.417 119.368,238.014 117.509 C 238.932 114.650,240.417 111.366,242.103 108.467 C 243.513 106.043,247.674 95.007,247.674 93.692 C 247.674 93.511,245.856 91.562,243.633 89.360 C 238.285 84.064,237.705 82.903,237.404 76.891 C 237.277 74.359,236.902 68.687,236.570 64.287 L 235.966 56.287 237.729 49.752 C 238.850 45.594,239.586 41.948,239.750 39.729 C 239.891 37.810,240.303 35.077,240.663 33.656 C 241.429 30.638,241.218 29.762,239.464 28.696 C 237.406 27.444,231.827 26.925,229.651 27.782 M233.134 35.853 C 233.617 36.919,234.320 39.060,234.696 40.611 L 235.381 43.431 233.624 49.913 L 231.867 56.395 232.385 62.984 C 232.671 66.609,233.061 72.626,233.252 76.357 C 233.745 85.963,235.175 89.782,239.392 92.754 C 240.863 93.791,241.009 94.018,240.544 94.548 C 239.585 95.640,238.076 98.994,237.214 101.948 C 236.749 103.541,235.864 106.502,235.246 108.527 C 232.249 118.360,232.263 122.644,235.314 128.851 C 235.936 130.117,236.311 131.278,236.149 131.432 C 235.986 131.586,234.545 132.675,232.946 133.853 C 228.198 137.350,227.917 137.608,227.081 139.246 C 224.559 144.190,225.786 148.669,230.299 151.004 C 231.073 151.403,231.810 152.358,232.543 153.908 C 233.750 156.459,233.755 156.349,232.097 162.559 L 231.279 165.621 230.582 164.264 C 229.105 161.384,225.854 159.362,221.318 158.501 C 218.154 157.900,217.045 157.128,215.557 154.491 C 213.881 151.522,211.878 149.712,208.527 148.141 C 205.639 146.787,202.326 144.106,202.326 143.123 C 202.326 141.172,199.670 137.805,197.093 136.489 C 190.369 133.056,180.066 131.766,170.389 133.145 C 169.187 133.317,168.573 133.159,167.385 132.372 L 165.891 131.384 167.258 129.325 C 168.363 127.661,169.031 127.098,170.742 126.389 C 173.305 125.326,174.499 123.984,175.623 120.902 C 176.671 118.027,180.357 114.387,183.026 113.589 C 190.078 111.482,191.939 108.811,192.593 99.850 L 193.072 93.304 191.836 92.029 C 190.182 90.323,186.814 88.574,183.655 87.780 C 181.480 87.234,181.034 86.979,180.830 86.167 C 179.278 79.981,174.784 73.307,170.935 71.470 C 167.070 69.624,167.189 68.309,171.318 67.271 C 175.828 66.136,178.722 64.223,180.108 61.458 C 181.622 58.437,183.459 56.235,184.969 55.631 C 187.342 54.682,190.443 52.568,192.102 50.768 C 192.928 49.872,194.654 48.642,195.936 48.034 C 197.218 47.427,199.194 46.138,200.328 45.170 C 201.461 44.203,202.450 43.411,202.524 43.411 C 206.594 43.411,227.006 36.170,229.925 33.690 C 231.420 32.420,231.651 32.576,233.134 35.853 M159.883 150.363 C 155.186 150.604,155.395 150.515,150.491 154.362 L 148.075 156.258 148.697 157.683 C 150.828 162.569,152.340 168.363,153.111 174.600 L 153.910 181.066 152.767 184.041 C 152.138 185.677,150.810 189.700,149.815 192.981 C 148.048 198.808,147.130 200.956,143.148 208.575 C 142.076 210.626,140.638 214.115,139.952 216.327 C 139.267 218.539,137.839 223.140,136.780 226.550 C 135.452 230.829,133.997 234.456,132.087 238.248 L 129.320 243.743 130.261 245.117 C 133.709 250.154,151.118 252.529,157.920 248.891 C 160.541 247.489,163.084 244.886,164.911 241.735 C 165.754 240.280,167.525 237.992,168.846 236.652 C 172.341 233.105,172.925 231.691,175.015 221.736 C 176.682 213.796,179.124 208.042,182.185 204.845 C 184.300 202.636,185.505 199.963,186.849 194.502 C 189.436 183.987,190.715 180.750,194.393 175.411 C 195.118 174.358,196.164 172.431,196.717 171.130 L 197.723 168.764 196.860 166.457 C 195.781 163.573,186.882 154.373,183.892 153.051 C 181.846 152.146,168.911 149.988,166.085 150.080 C 165.019 150.115,162.228 150.242,159.883 150.363 M174.937 155.206 C 180.772 156.028,181.529 156.220,182.091 157.022 C 183.965 159.698,187.727 163.587,190.754 165.978 C 192.642 167.469,194.186 168.717,194.186 168.752 C 194.186 168.787,193.094 169.945,191.760 171.326 C 188.408 174.796,187.138 177.612,184.822 186.717 C 182.611 195.408,182.056 196.693,179.391 199.289 C 176.210 202.388,174.820 206.081,171.688 219.767 C 170.025 227.035,168.976 229.371,165.984 232.480 C 163.202 235.369,160.593 239.737,159.869 242.717 C 159.224 245.372,156.996 246.357,150.107 247.035 C 143.116 247.723,143.046 247.713,138.183 245.293 C 135.276 243.846,135.389 244.119,136.579 241.424 C 137.085 240.278,137.891 237.597,138.370 235.465 C 139.150 232.001,141.217 224.265,142.847 218.719 C 143.247 217.358,144.011 216.096,145.195 214.843 C 148.197 211.665,150.301 206.593,152.338 197.621 C 153.905 190.716,155.776 186.052,157.946 183.638 C 158.905 182.572,159.690 181.467,159.690 181.183 C 159.690 175.659,157.923 162.620,156.920 160.747 C 156.127 159.265,155.467 156.222,155.883 155.965 C 156.096 155.834,158.914 155.415,162.146 155.034 C 165.379 154.653,168.110 154.329,168.217 154.314 C 168.324 154.299,171.347 154.701,174.937 155.206 M255.416 190.407 C 255.005 191.313,254.664 192.321,254.660 192.647 C 254.655 192.974,254.027 194.718,253.264 196.523 C 252.502 198.329,250.949 203.382,249.814 207.752 C 247.239 217.669,244.708 224.031,243.338 224.031 C 241.330 224.031,238.678 230.450,237.607 237.905 L 236.755 243.833 238.304 245.885 C 239.156 247.013,240.697 248.475,241.729 249.134 L 243.605 250.332 250.388 250.457 C 259.813 250.630,267.593 248.964,270.615 246.124 C 272.502 244.351,275.475 238.369,279.283 228.682 C 279.995 226.870,281.188 223.915,281.933 222.114 C 283.518 218.285,283.619 218.643,279.547 213.663 C 275.254 208.412,274.557 206.964,274.272 202.713 C 273.788 195.478,273.523 195.136,266.667 192.894 C 263.789 191.953,260.313 190.638,258.943 189.971 C 255.907 188.495,256.306 188.445,255.416 190.407 M203.978 200.040 C 201.500 201.482,199.055 204.250,198.196 206.589 C 196.365 211.571,195.111 214.170,193.453 216.416 C 190.918 219.850,189.640 222.907,188.523 228.211 C 187.996 230.709,186.962 235.275,186.225 238.359 L 184.884 243.966 185.984 245.336 C 189.768 250.044,192.504 250.999,200.903 250.541 L 207.558 250.179 211.799 248.140 C 222.548 242.972,224.706 239.702,226.562 225.775 L 227.492 218.798 226.184 216.020 C 222.370 207.924,219.720 205.128,212.641 201.730 C 206.089 198.584,206.384 198.642,203.978 200.040 M265.421 202.910 L 268.633 204.384 270.574 208.164 C 272.204 211.338,273.911 213.988,277.040 218.205 C 277.439 218.743,277.416 219.183,276.916 220.576 C 276.578 221.517,275.702 224.467,274.969 227.132 C 274.236 229.797,272.779 233.983,271.732 236.434 C 270.684 238.886,269.567 241.530,269.250 242.311 C 268.710 243.640,268.465 243.793,265.441 244.700 C 256.742 247.309,256.653 247.322,249.797 247.041 L 243.452 246.781 242.029 245.323 L 240.605 243.865 241.277 240.847 C 242.765 234.155,243.617 231.985,245.487 230.114 C 248.731 226.871,250.526 222.131,252.694 211.083 C 253.342 207.779,254.240 204.151,254.689 203.022 C 255.138 201.893,255.658 200.577,255.844 200.097 L 256.182 199.226 259.196 200.331 C 260.853 200.939,263.655 202.100,265.421 202.910 M209.770 204.068 C 212.128 205.240,213.978 206.507,215.420 207.937 C 216.599 209.107,217.842 210.155,218.181 210.266 C 218.832 210.480,221.954 215.087,223.094 217.516 C 223.735 218.883,223.729 219.220,222.954 225.168 C 221.913 233.160,220.891 235.492,217.076 238.576 C 215.679 239.707,214.099 241.341,213.566 242.208 C 212.828 243.409,211.872 244.165,209.551 245.383 L 206.506 246.982 200.192 247.190 C 194.277 247.386,193.795 247.348,192.578 246.595 C 190.917 245.567,189.002 243.572,189.266 243.145 C 189.378 242.963,189.938 240.029,190.511 236.623 C 191.711 229.486,192.807 226.405,195.004 223.998 C 197.305 221.477,199.453 216.711,200.954 210.795 C 202.254 205.671,202.285 205.604,204.137 203.981 C 206.390 202.007,205.597 201.995,209.770 204.068 M67.376 267.928 L 66.341 268.798 66.886 274.806 C 67.392 280.381,68.465 287.974,68.793 288.302 C 68.871 288.380,69.235 287.861,69.601 287.148 C 69.967 286.436,70.912 284.893,71.700 283.721 C 72.488 282.548,73.896 280.107,74.828 278.295 C 76.126 275.772,77.245 274.295,79.601 271.992 C 83.297 268.380,83.598 268.762,76.319 267.824 C 68.869 266.864,68.638 266.867,67.376 267.928 M217.088 277.705 C 215.029 280.256,214.554 281.315,213.593 285.496 C 213.148 287.432,212.340 290.136,211.797 291.504 C 210.863 293.858,210.816 294.320,210.928 300.069 C 211.067 307.191,211.011 307.064,215.559 310.565 L 218.459 312.797 225.024 313.041 C 231.133 313.268,231.939 313.214,236.628 312.263 C 243.558 310.856,244.147 310.665,246.747 308.971 C 250.239 306.696,250.200 306.784,250.730 300.000 L 251.199 293.992 250.040 291.667 C 249.372 290.328,248.615 287.860,248.256 285.853 C 247.418 281.178,247.328 280.931,245.555 278.509 L 244.017 276.407 241.291 276.179 C 239.792 276.054,234.084 275.912,228.606 275.864 L 218.646 275.775 217.088 277.705 M91.559 276.613 C 88.164 278.286,87.583 280.257,89.096 284.980 C 89.743 286.997,90.799 291.246,91.444 294.421 C 93.647 305.271,92.885 304.461,101.951 305.597 C 105.890 306.091,106.148 306.184,109.315 308.240 C 114.036 311.306,118.129 313.284,119.198 313.016 C 122.862 312.096,132.972 306.801,134.482 305.011 C 137.309 301.658,140.527 300.251,149.538 298.425 C 156.706 296.974,156.532 296.962,158.853 299.049 C 161.505 301.434,162.750 304.122,163.626 309.362 C 164.220 312.910,164.600 314.068,165.907 316.306 C 168.504 320.753,168.987 320.440,177.746 308.634 L 179.330 306.499 177.665 303.264 C 176.749 301.484,175.620 298.758,175.156 297.204 C 174.114 293.722,174.032 293.618,171.186 292.182 L 168.876 291.016 162.379 291.703 C 153.206 292.673,147.079 291.069,144.592 287.045 L 143.813 285.785 137.716 285.970 L 131.619 286.155 129.085 288.737 C 127.519 290.331,125.513 291.869,123.837 292.760 C 122.345 293.554,120.638 294.587,120.043 295.056 L 118.963 295.910 117.706 294.538 C 116.089 292.772,111.695 290.932,106.072 289.665 C 99.823 288.258,97.989 286.887,96.961 282.857 C 96.413 280.710,93.880 275.966,93.288 275.978 C 93.036 275.983,92.258 276.268,91.559 276.613 M316.155 281.388 C 310.508 288.820,308.420 289.919,299.911 289.935 C 293.519 289.948,292.946 290.014,287.209 291.405 L 281.202 292.862 275.023 290.966 C 268.015 288.815,268.012 288.815,263.178 291.313 C 258.881 293.534,259.038 293.247,260.095 296.962 C 260.595 298.715,261.737 301.588,262.634 303.346 C 264.247 306.508,264.269 306.607,264.708 312.652 C 265.190 319.293,265.168 319.225,267.323 320.413 L 268.798 321.226 272.481 320.071 C 275.471 319.134,276.369 318.668,277.257 317.597 C 277.859 316.872,279.122 315.827,280.063 315.276 C 282.221 314.011,286.428 309.508,288.595 306.143 C 290.389 303.359,290.685 303.096,294.767 300.683 C 299.263 298.026,305.506 295.914,306.816 296.609 C 309.306 297.930,310.792 300.286,312.054 304.913 C 313.319 309.548,317.646 317.829,318.803 317.829 C 319.650 317.829,323.592 315.960,324.587 315.087 C 327.449 312.574,328.101 310.057,328.101 301.517 L 328.101 293.925 326.156 291.797 C 323.944 289.377,322.124 286.203,320.145 281.313 L 318.778 277.935 316.155 281.388 M233.175 288.469 C 236.364 293.432,236.264 295.388,232.522 301.219 L 231.314 303.102 229.785 301.890 C 228.141 300.589,226.245 297.629,225.504 295.210 C 224.937 293.359,225.775 291.552,228.745 288.220 C 231.162 285.508,231.277 285.514,233.175 288.469 M190.290 291.225 C 186.693 293.348,186.707 293.330,185.671 296.899 C 185.207 298.498,184.293 301.278,183.641 303.076 C 182.247 306.917,182.169 306.507,185.737 314.003 L 188.068 318.897 190.935 319.730 L 193.803 320.563 195.301 319.701 C 196.302 319.125,196.961 318.382,197.287 317.462 C 197.556 316.705,198.724 313.905,199.883 311.240 L 201.990 306.395 202.213 300.159 L 202.436 293.922 201.105 292.907 C 199.535 291.709,195.968 290.023,194.356 289.715 C 193.468 289.546,192.572 289.879,190.290 291.225 M340.753 292.231 C 335.281 294.102,335.691 294.983,344.956 301.264 C 345.824 301.853,347.052 303.151,347.686 304.150 L 348.837 305.966 348.837 312.438 L 348.837 318.910 352.446 319.590 C 357.910 320.619,357.898 320.632,358.518 312.941 C 358.968 307.361,358.856 298.739,358.283 294.851 C 358.164 294.044,357.632 292.867,357.100 292.235 L 356.133 291.085 350.062 291.104 C 344.425 291.122,343.761 291.202,340.753 292.231 M319.819 296.609 C 320.846 298.617,322.868 304.905,322.868 306.088 C 322.868 307.108,319.771 311.047,318.969 311.047 C 318.662 311.047,317.834 309.956,317.129 308.623 L 315.848 306.199 316.307 302.228 C 316.799 297.967,317.144 296.708,318.110 295.640 C 318.916 294.750,318.849 294.713,319.819 296.609 " stroke="none" fill="#99acd4" fill-rule="evenodd"></path><path id="path2" d="M241.646 11.811 C 239.017 13.125,237.024 14.846,235.484 17.134 C 233.759 19.694,232.181 20.697,228.051 21.859 C 217.292 24.884,212.329 27.006,208.904 30.048 C 207.770 31.055,206.313 31.926,205.335 32.181 C 190.320 36.097,187.437 37.484,184.857 42.031 C 183.541 44.350,181.791 45.827,179.100 46.887 C 175.186 48.430,171.514 51.615,169.818 54.940 C 169.176 56.199,168.654 56.633,167.118 57.185 C 160.538 59.552,157.518 65.763,159.467 72.921 C 161.844 81.644,163.845 85.929,167.103 89.273 C 170.354 92.609,170.547 93.095,170.957 98.972 C 171.153 101.776,171.394 104.533,171.492 105.099 C 171.679 106.174,171.261 106.631,165.910 111.189 C 164.364 112.506,163.545 113.667,162.220 116.421 C 160.186 120.651,157.005 125.015,154.643 126.816 C 153.699 127.536,152.442 128.817,151.849 129.663 L 150.772 131.202 151.721 135.078 C 152.244 137.209,153.029 139.984,153.467 141.243 C 153.905 142.502,154.264 143.577,154.264 143.633 C 154.264 143.688,152.301 145.039,149.903 146.636 C 142.640 151.471,140.208 153.286,139.006 154.772 L 137.858 156.191 138.897 158.841 C 139.496 160.365,140.752 162.467,141.855 163.788 C 144.157 166.545,144.677 167.628,146.124 172.674 C 148.313 180.308,148.329 180.648,146.760 185.892 C 146.001 188.428,145.104 191.492,144.765 192.699 C 144.291 194.393,143.672 195.393,142.051 197.079 C 138.666 200.602,136.568 205.887,134.901 215.091 C 133.900 220.615,131.675 226.912,130.202 228.385 C 126.090 232.497,122.612 241.877,123.874 245.453 C 126.468 252.805,129.193 254.320,142.054 255.557 C 152.681 256.580,165.101 252.570,168.004 247.179 L 168.731 245.828 171.866 246.899 C 177.668 248.881,181.114 250.418,181.847 251.351 C 186.019 256.654,204.394 257.013,216.473 252.028 C 217.965 251.412,219.994 250.706,220.981 250.460 C 228.779 248.514,230.515 246.105,230.967 236.603 L 231.278 230.039 231.337 236.717 C 231.417 245.855,232.637 249.456,236.706 252.559 C 243.459 257.710,268.615 255.840,274.670 249.737 C 276.326 248.068,276.297 248.119,279.071 241.882 C 280.557 238.542,281.412 237.132,282.530 236.175 C 285.583 233.561,287.086 230.080,288.579 222.164 C 289.645 216.510,286.454 209.412,281.632 206.714 C 281.031 206.377,281.379 205.892,284.387 202.874 C 288.106 199.141,291.860 194.427,291.860 193.487 C 291.860 192.443,289.185 188.088,287.247 185.977 C 283.925 182.358,282.120 181.552,275.194 180.595 C 271.157 180.037,268.198 179.394,266.174 178.634 C 264.518 178.012,261.465 177.090,259.391 176.584 C 253.335 175.107,243.873 170.968,243.054 169.437 C 242.791 168.946,242.837 166.670,243.199 162.360 C 243.742 155.876,243.608 153.879,242.022 144.906 C 241.774 143.503,241.791 143.481,244.650 141.552 C 250.055 137.905,252.820 133.376,252.007 129.502 C 251.362 126.426,249.165 122.033,247.377 120.246 L 245.845 118.713 246.580 117.787 C 248.185 115.763,249.355 112.816,250.780 107.217 C 251.599 103.994,252.723 99.620,253.277 97.497 L 254.283 93.638 252.743 90.429 C 250.979 86.752,248.804 84.407,245.602 82.731 L 243.473 81.616 243.260 79.083 C 243.143 77.690,242.944 74.632,242.818 72.287 C 242.692 69.942,242.346 65.399,242.050 62.191 L 241.512 56.359 242.620 52.572 C 243.230 50.490,244.171 48.143,244.712 47.358 C 247.694 43.030,249.453 36.960,250.955 25.813 L 251.942 18.486 250.974 16.834 C 249.648 14.571,247.932 12.934,245.702 11.804 C 243.445 10.661,243.949 10.660,241.646 11.811 M244.147 19.089 C 244.017 20.728,243.487 21.464,243.449 20.058 C 243.428 19.259,243.585 18.605,243.798 18.605 C 244.012 18.605,244.169 18.823,244.147 19.089 M236.641 27.741 C 240.465 28.201,241.618 29.896,240.663 33.656 C 240.303 35.077,239.891 37.810,239.750 39.729 C 239.586 41.948,238.850 45.594,237.729 49.752 L 235.966 56.287 236.570 64.287 C 236.902 68.687,237.277 74.359,237.404 76.891 C 237.705 82.903,238.285 84.064,243.633 89.360 C 245.856 91.562,247.674 93.511,247.674 93.692 C 247.674 95.007,243.513 106.043,242.103 108.467 C 240.417 111.366,238.932 114.650,238.014 117.509 C 237.417 119.368,239.397 123.505,242.423 126.719 C 246.448 130.995,246.422 132.350,242.264 134.764 C 239.670 136.270,236.540 138.773,233.964 141.401 L 231.687 143.724 232.660 145.021 C 236.352 149.944,238.123 155.300,237.380 159.302 C 235.551 169.165,235.129 170.275,232.553 172.011 L 231.210 172.916 229.268 170.796 C 228.199 169.631,226.479 167.699,225.444 166.504 C 223.921 164.745,222.743 163.912,219.253 162.127 C 215.550 160.233,214.423 159.410,211.251 156.283 C 208.260 153.335,206.959 152.357,204.403 151.137 C 200.946 149.487,199.766 148.336,198.055 144.948 C 196.065 141.004,193.195 139.308,184.316 136.823 L 181.229 135.959 175.401 136.658 C 167.282 137.631,164.869 137.031,161.289 133.147 L 159.688 131.410 161.850 128.612 C 163.039 127.073,165.061 124.106,166.343 122.020 C 168.171 119.046,169.317 117.686,171.644 115.731 C 173.276 114.360,176.155 111.678,178.040 109.773 L 181.467 106.308 180.293 102.863 C 179.647 100.969,178.750 97.936,178.299 96.124 C 177.074 91.197,174.228 85.667,171.019 81.977 C 168.128 78.653,167.483 77.562,165.325 72.348 C 164.019 69.195,163.969 68.923,164.507 67.883 C 165.421 66.116,168.228 63.459,170.581 62.134 C 171.775 61.462,173.519 59.997,174.457 58.878 C 177.389 55.383,179.700 53.288,182.302 51.766 C 185.605 49.834,187.936 47.876,190.299 45.048 C 192.921 41.910,192.966 41.888,201.550 39.358 C 209.984 36.872,214.297 35.212,218.617 32.788 C 221.214 31.331,224.971 29.626,229.651 27.782 C 231.141 27.195,232.061 27.190,236.641 27.741 M184.528 142.308 C 188.012 143.684,188.122 144.003,185.557 145.287 C 182.764 146.686,181.364 146.699,174.375 145.389 C 170.848 144.727,167.419 144.186,166.756 144.186 C 166.092 144.186,165.442 144.012,165.310 143.798 C 165.167 143.566,165.663 143.407,166.547 143.402 C 167.359 143.397,170.727 142.889,174.031 142.272 C 181.570 140.867,180.875 140.864,184.528 142.308 M175.083 151.147 C 184.320 152.625,184.558 152.744,190.819 158.987 C 195.309 163.464,196.111 164.456,196.860 166.457 L 197.723 168.764 196.717 171.130 C 196.164 172.431,195.118 174.358,194.393 175.411 C 190.715 180.750,189.436 183.987,186.849 194.502 C 185.505 199.963,184.300 202.636,182.185 204.845 C 179.124 208.042,176.682 213.796,175.015 221.736 C 172.925 231.691,172.341 233.105,168.846 236.652 C 167.525 237.992,165.754 240.280,164.911 241.735 C 163.084 244.886,160.541 247.489,157.920 248.891 C 151.118 252.529,133.709 250.154,130.261 245.117 L 129.320 243.743 132.087 238.248 C 133.997 234.456,135.452 230.829,136.780 226.550 C 137.839 223.140,139.267 218.539,139.952 216.327 C 140.638 214.115,142.076 210.626,143.148 208.575 C 147.130 200.956,148.048 198.808,149.815 192.981 C 150.810 189.700,152.138 185.677,152.767 184.041 L 153.910 181.066 153.111 174.600 C 152.340 168.363,150.828 162.569,148.697 157.683 L 148.075 156.258 150.491 154.362 C 155.743 150.242,155.013 150.442,166.085 150.080 C 167.151 150.046,171.200 150.525,175.083 151.147 M208.303 161.919 C 210.292 163.735,213.261 165.413,216.667 166.645 C 219.591 167.703,220.063 168.122,221.573 170.996 C 223.462 174.591,225.837 176.919,229.766 179.030 C 232.219 180.348,233.298 181.210,234.517 182.824 C 236.405 185.326,238.470 186.906,241.860 188.444 C 246.602 190.594,247.967 192.597,247.143 196.194 C 246.834 197.541,246.308 200.389,245.972 202.523 C 245.359 206.424,244.488 209.809,243.840 210.810 C 243.547 211.264,231.400 215.310,231.201 215.020 C 231.164 214.966,230.832 214.138,230.464 213.178 C 227.155 204.562,224.028 200.933,217.529 198.170 C 204.417 192.595,196.865 193.152,194.123 199.898 C 193.701 200.936,193.672 200.896,193.179 198.643 C 192.200 194.173,192.874 190.161,194.773 189.144 C 196.206 188.377,197.582 186.108,198.185 183.516 C 198.484 182.231,198.996 180.661,199.324 180.028 C 200.390 177.963,201.549 173.946,202.166 170.172 C 202.934 165.476,203.726 162.929,204.913 161.337 C 206.089 159.761,205.906 159.730,208.303 161.919 M258.943 189.971 C 260.313 190.638,263.789 191.953,266.667 192.894 C 273.523 195.136,273.788 195.478,274.272 202.713 C 274.557 206.964,275.254 208.412,279.547 213.663 C 283.619 218.643,283.518 218.285,281.933 222.114 C 281.188 223.915,279.995 226.870,279.283 228.682 C 275.475 238.369,272.502 244.351,270.615 246.124 C 267.593 248.964,259.813 250.630,250.388 250.457 L 243.605 250.332 241.729 249.134 C 240.697 248.475,239.156 247.013,238.304 245.885 L 236.755 243.833 237.607 237.905 C 238.678 230.450,241.330 224.031,243.338 224.031 C 244.708 224.031,247.239 217.669,249.814 207.752 C 250.949 203.382,252.502 198.329,253.264 196.523 C 254.027 194.718,254.655 192.974,254.660 192.647 C 254.669 192.031,256.055 188.760,256.308 188.760 C 256.387 188.760,257.573 189.305,258.943 189.971 M212.641 201.730 C 219.720 205.128,222.370 207.924,226.184 216.020 L 227.492 218.798 226.562 225.775 C 224.706 239.702,222.548 242.972,211.799 248.140 L 207.558 250.179 200.903 250.541 C 192.504 250.999,189.768 250.044,185.984 245.336 L 184.884 243.966 186.225 238.359 C 186.962 235.275,187.996 230.709,188.523 228.211 C 189.640 222.907,190.918 219.850,193.453 216.416 C 195.111 214.170,196.365 211.571,198.196 206.589 C 199.459 203.151,204.758 198.514,206.783 199.075 C 207.209 199.193,209.845 200.388,212.641 201.730 M182.869 224.924 C 183.064 232.050,181.945 238.241,180.756 236.615 C 178.898 234.074,178.871 227.066,180.688 218.857 L 181.103 216.978 181.899 217.774 C 182.621 218.496,182.712 219.162,182.869 224.924 M240.504 261.638 C 234.224 264.666,231.983 265.183,227.028 264.745 C 224.633 264.533,221.890 264.292,220.930 264.209 C 215.000 263.692,211.140 266.199,207.594 272.868 C 204.927 277.884,200.598 280.724,193.728 281.965 C 190.291 282.586,186.064 283.847,182.946 285.181 L 181.202 285.928 176.853 284.467 C 169.689 282.061,169.281 282.022,162.403 283.074 C 155.387 284.148,155.945 284.301,151.955 280.202 C 144.517 272.562,129.144 271.585,119.012 278.109 C 116.804 279.531,107.997 281.482,106.456 280.891 C 105.902 280.678,102.150 274.454,100.036 270.240 C 96.551 263.295,93.995 262.392,74.612 261.256 C 66.623 260.787,63.629 261.893,60.074 266.624 L 58.621 268.557 59.331 272.439 C 61.195 282.631,62.104 292.158,61.924 299.612 C 61.681 309.670,63.776 319.305,67.246 324.087 L 68.543 325.874 72.319 323.956 C 74.395 322.902,77.231 321.611,78.620 321.088 L 81.146 320.138 84.081 321.113 C 89.921 323.054,93.554 323.626,100.091 323.635 C 103.446 323.640,108.997 323.911,112.427 324.239 C 118.414 324.810,118.916 324.802,125.002 324.019 L 131.341 323.204 135.341 324.015 C 141.510 325.266,143.452 325.410,149.965 325.100 C 156.566 324.786,156.118 324.716,164.507 327.393 L 168.742 328.745 170.902 328.092 C 172.090 327.734,174.719 326.918,176.744 326.279 C 179.868 325.294,180.779 325.159,182.752 325.384 C 193.952 326.665,193.604 326.658,197.016 325.676 C 200.504 324.671,203.043 323.369,204.872 321.646 L 206.062 320.526 211.074 321.948 C 218.483 324.052,225.952 324.145,250.055 322.434 L 256.117 322.003 258.582 323.718 C 265.246 328.354,267.166 328.551,278.497 325.769 C 294.880 321.746,295.224 321.531,299.995 312.355 C 304.822 303.070,306.514 302.325,307.959 308.848 C 309.648 316.474,312.450 321.823,315.921 324.050 C 318.213 325.519,319.435 325.602,327.907 324.857 C 331.449 324.545,335.943 324.756,348.457 325.820 L 356.410 326.495 358.534 325.519 C 361.216 324.287,363.008 322.777,364.406 320.571 L 365.504 318.840 365.472 310.292 C 365.407 292.634,364.794 289.563,360.469 285.239 C 356.984 281.753,352.929 281.558,338.094 284.162 C 334.424 284.806,331.243 285.223,331.026 285.089 C 329.863 284.370,328.097 280.855,326.507 276.095 C 324.100 268.886,323.521 267.762,321.057 265.510 L 318.943 263.578 316.995 264.565 C 314.383 265.888,312.244 267.926,309.080 272.103 C 306.597 275.380,306.156 275.758,301.574 278.530 L 296.705 281.476 289.010 283.222 L 281.314 284.969 275.056 283.216 C 271.614 282.252,267.141 281.265,265.116 281.022 C 263.091 280.780,260.300 280.323,258.915 280.008 L 256.395 279.434 254.771 276.054 C 253.877 274.195,252.448 271.768,251.594 270.660 C 250.741 269.552,249.935 268.069,249.802 267.364 C 249.387 265.152,247.873 262.645,246.162 261.337 C 244.158 259.806,244.323 259.797,240.504 261.638 M76.319 267.824 C 83.598 268.762,83.297 268.380,79.601 271.992 C 77.245 274.295,76.126 275.772,74.828 278.295 C 73.896 280.107,72.488 282.548,71.700 283.721 C 70.912 284.893,69.967 286.436,69.601 287.148 C 69.235 287.861,68.871 288.380,68.793 288.302 C 68.465 287.974,67.392 280.381,66.886 274.806 L 66.341 268.798 67.376 267.928 C 68.638 266.867,68.869 266.864,76.319 267.824 M241.291 276.179 L 244.017 276.407 245.555 278.509 C 247.328 280.931,247.418 281.178,248.256 285.853 C 248.615 287.860,249.372 290.328,250.040 291.667 L 251.199 293.992 250.730 300.000 C 250.200 306.784,250.239 306.696,246.747 308.971 C 244.147 310.665,243.558 310.856,236.628 312.263 C 231.939 313.214,231.133 313.268,225.024 313.041 L 218.459 312.797 215.559 310.565 C 211.011 307.064,211.067 307.191,210.928 300.069 C 210.816 294.320,210.863 293.858,211.797 291.504 C 212.340 290.136,213.148 287.432,213.593 285.496 C 214.554 281.315,215.029 280.256,217.088 277.705 L 218.646 275.775 228.606 275.864 C 234.084 275.912,239.792 276.054,241.291 276.179 M95.142 278.585 C 95.910 280.024,96.728 281.947,96.961 282.857 C 97.989 286.887,99.823 288.258,106.072 289.665 C 111.695 290.932,116.089 292.772,117.706 294.538 L 118.963 295.910 120.043 295.056 C 120.638 294.587,122.345 293.554,123.837 292.760 C 125.513 291.869,127.519 290.331,129.085 288.737 L 131.619 286.155 137.716 285.970 L 143.813 285.785 144.592 287.045 C 147.079 291.069,153.206 292.673,162.379 291.703 L 168.876 291.016 171.186 292.182 C 174.032 293.618,174.114 293.722,175.156 297.204 C 175.620 298.758,176.749 301.484,177.665 303.264 L 179.330 306.499 177.746 308.634 C 168.987 320.440,168.504 320.753,165.907 316.306 C 164.600 314.068,164.220 312.910,163.626 309.362 C 162.750 304.122,161.505 301.434,158.853 299.049 C 156.532 296.962,156.706 296.974,149.538 298.425 C 140.527 300.251,137.309 301.658,134.482 305.011 C 132.972 306.801,122.862 312.096,119.198 313.016 C 118.129 313.284,114.036 311.306,109.315 308.240 C 106.148 306.184,105.890 306.091,101.951 305.597 C 92.885 304.461,93.647 305.271,91.444 294.421 C 90.799 291.246,89.743 286.997,89.096 284.980 C 87.583 280.257,88.164 278.286,91.559 276.613 C 93.471 275.670,93.635 275.761,95.142 278.585 M322.861 287.179 C 323.603 288.548,325.086 290.626,326.156 291.797 L 328.101 293.925 328.101 301.517 C 328.101 310.057,327.449 312.574,324.587 315.087 C 323.592 315.960,319.650 317.829,318.803 317.829 C 317.646 317.829,313.319 309.548,312.054 304.913 C 310.792 300.286,309.306 297.930,306.816 296.609 C 305.506 295.914,299.263 298.026,294.767 300.683 C 290.685 303.096,290.389 303.359,288.595 306.143 C 286.428 309.508,282.221 314.011,280.063 315.276 C 279.122 315.827,277.859 316.872,277.257 317.597 C 276.369 318.668,275.471 319.134,272.481 320.071 L 268.798 321.226 267.323 320.413 C 265.168 319.225,265.190 319.293,264.708 312.652 C 264.269 306.607,264.247 306.508,262.634 303.346 C 261.737 301.588,260.595 298.715,260.095 296.962 C 259.038 293.247,258.881 293.534,263.178 291.313 C 268.012 288.815,268.015 288.815,275.023 290.966 L 281.202 292.862 287.209 291.405 C 292.946 290.014,293.519 289.948,299.911 289.935 C 308.420 289.919,310.508 288.820,316.155 281.388 L 318.778 277.935 320.145 281.313 C 320.897 283.170,322.119 285.810,322.861 287.179 M197.634 290.912 C 198.811 291.451,200.373 292.348,201.105 292.907 L 202.436 293.922 202.213 300.159 L 201.990 306.395 199.883 311.240 C 198.724 313.905,197.556 316.705,197.287 317.462 C 196.961 318.382,196.302 319.125,195.301 319.701 L 193.803 320.563 190.935 319.730 L 188.068 318.897 185.737 314.003 C 182.169 306.507,182.247 306.917,183.641 303.076 C 184.293 301.278,185.207 298.498,185.671 296.899 C 186.707 293.330,186.693 293.348,190.290 291.225 C 193.579 289.285,194.037 289.265,197.634 290.912 M357.100 292.235 C 359.513 295.103,359.466 318.034,357.043 319.621 C 356.118 320.228,355.823 320.226,352.446 319.590 L 348.837 318.910 348.837 312.438 L 348.837 305.966 347.686 304.150 C 347.052 303.151,345.824 301.853,344.956 301.264 C 338.831 297.111,336.232 294.621,337.108 293.745 C 338.640 292.212,343.985 291.123,350.062 291.104 L 356.133 291.085 357.100 292.235 M65.504 333.533 C 58.831 334.897,54.660 337.609,52.244 342.154 L 51.266 343.992 52.167 349.696 C 53.213 356.322,53.578 357.183,56.150 359.071 C 62.564 363.779,73.647 365.837,92.512 365.822 C 99.372 365.817,105.156 365.918,105.365 366.047 C 105.574 366.176,108.769 365.775,112.465 365.155 C 121.268 363.679,129.228 363.908,136.240 365.839 C 138.585 366.484,142.161 367.377,144.186 367.822 C 146.674 368.369,149.100 369.255,151.666 370.556 C 156.467 372.989,155.941 373.086,160.054 369.015 C 161.980 367.110,164.702 364.733,166.102 363.733 L 168.649 361.916 172.794 362.733 C 185.940 365.324,202.911 366.593,212.577 365.706 C 218.539 365.159,220.257 365.160,231.181 365.720 C 240.666 366.206,244.039 366.244,247.093 365.901 C 253.031 365.235,263.061 363.626,266.067 362.858 C 268.744 362.174,268.776 362.175,270.912 363.036 C 277.427 365.662,296.661 366.702,332.191 366.351 C 336.786 366.305,341.059 366.364,341.687 366.482 C 343.358 366.796,356.876 365.279,358.902 364.551 C 363.922 362.746,367.859 358.381,367.246 355.301 C 365.834 348.220,362.038 342.307,357.374 339.928 C 355.881 339.166,355.101 339.120,342.338 339.039 L 328.876 338.953 323.908 340.237 L 318.941 341.521 315.381 339.775 C 313.423 338.815,310.553 337.652,309.003 337.191 L 306.185 336.353 299.895 337.367 C 291.270 338.757,284.096 338.756,275.221 337.366 C 267.660 336.181,259.710 336.455,250.000 338.236 C 242.222 339.662,233.835 340.129,225.194 339.615 C 220.514 339.336,216.138 339.309,212.597 339.536 C 202.825 340.163,194.126 340.021,190.762 339.178 C 189.128 338.769,186.308 338.144,184.496 337.790 C 182.684 337.436,178.567 336.375,175.348 335.433 C 172.128 334.491,169.153 333.721,168.736 333.721 C 166.267 333.721,158.756 339.912,156.642 343.690 C 156.358 344.197,155.946 344.083,153.833 342.913 C 145.957 338.550,137.573 337.501,120.576 338.753 C 110.280 339.511,95.692 340.940,94.654 341.292 C 94.378 341.385,91.795 341.115,88.915 340.692 C 86.035 340.269,83.226 339.922,82.674 339.922 C 82.110 339.922,80.971 339.354,80.079 338.626 C 77.483 336.510,75.209 335.223,71.998 334.051 C 68.598 332.810,68.919 332.836,65.504 333.533 M71.040 338.617 C 73.824 340.021,75.754 341.546,78.533 344.540 L 80.904 347.093 87.061 347.318 C 90.447 347.442,96.095 347.387,99.612 347.195 C 106.062 346.844,110.554 346.987,115.891 347.712 C 118.618 348.082,119.157 348.020,124.589 346.713 C 134.508 344.325,142.128 344.942,152.132 348.943 C 159.031 351.702,163.953 350.111,163.953 345.122 C 163.953 344.134,165.982 341.819,168.034 340.465 C 168.957 339.856,178.202 342.568,182.132 344.600 C 186.746 346.986,187.440 347.060,204.008 346.939 C 217.778 346.839,219.584 346.902,225.170 347.683 L 231.276 348.536 235.890 347.737 C 238.428 347.297,242.248 346.742,244.380 346.503 C 248.923 345.994,253.253 345.086,254.729 344.333 C 255.398 343.991,257.088 343.798,259.420 343.798 C 265.515 343.798,266.779 345.199,266.989 352.180 L 267.119 356.493 263.695 357.732 C 253.377 361.468,245.206 362.674,237.166 361.646 C 230.068 360.739,224.374 360.799,213.566 361.895 C 199.117 363.360,173.556 359.439,171.165 355.391 C 169.632 352.796,166.667 352.925,166.667 355.587 C 166.667 355.865,165.720 356.720,164.563 357.489 C 163.406 358.257,161.021 360.047,159.262 361.467 L 156.065 364.048 149.447 363.847 C 143.150 363.656,142.558 363.568,137.209 362.039 C 132.644 360.733,130.410 360.327,125.311 359.877 L 119.033 359.322 112.908 360.904 L 106.783 362.487 94.186 362.266 C 80.973 362.035,79.872 361.915,71.901 359.839 C 63.457 357.640,62.955 357.158,60.031 348.450 L 58.534 343.992 60.559 342.092 C 62.413 340.354,67.289 337.597,68.510 337.597 C 68.789 337.597,69.928 338.056,71.040 338.617 M310.028 344.541 C 311.867 345.589,314.613 346.836,316.129 347.313 L 318.886 348.181 325.044 347.161 C 333.049 345.836,341.521 345.521,349.975 346.234 L 356.346 346.771 358.183 348.769 C 359.193 349.867,360.647 352.021,361.414 353.555 L 362.810 356.343 361.347 357.843 C 357.535 361.751,350.808 363.167,338.760 362.595 C 333.563 362.349,316.601 362.070,292.829 361.840 C 279.305 361.709,279.179 361.691,274.225 359.207 C 269.723 356.950,269.767 357.010,269.770 353.171 C 269.775 345.228,271.018 344.674,287.137 345.431 C 293.645 345.737,293.943 345.717,297.021 344.779 C 300.318 343.775,304.703 342.742,305.958 342.675 C 306.357 342.653,308.188 343.493,310.028 344.541 " stroke="none" fill="#b6c8e1" fill-rule="evenodd"></path><path id="path3" d="M65.293 338.895 C 63.804 339.609,61.673 341.048,60.559 342.092 L 58.534 343.992 60.031 348.450 C 62.955 357.158,63.457 357.640,71.901 359.839 C 79.872 361.915,80.973 362.035,94.186 362.266 L 106.783 362.487 112.908 360.904 L 119.033 359.322 125.311 359.877 C 130.410 360.327,132.644 360.733,137.209 362.039 C 142.558 363.568,143.150 363.656,149.447 363.847 L 156.065 364.048 159.262 361.467 C 161.021 360.047,163.406 358.257,164.563 357.489 C 165.720 356.720,166.667 355.865,166.667 355.587 C 166.667 352.925,169.632 352.796,171.165 355.391 C 173.556 359.439,199.117 363.360,213.566 361.895 C 224.374 360.799,230.068 360.739,237.166 361.646 C 245.206 362.674,253.377 361.468,263.695 357.732 L 267.119 356.493 266.989 352.180 C 266.779 345.199,265.515 343.798,259.420 343.798 C 257.088 343.798,255.398 343.991,254.729 344.333 C 253.253 345.086,248.923 345.994,244.380 346.503 C 242.248 346.742,238.428 347.297,235.890 347.737 L 231.276 348.536 225.170 347.683 C 219.584 346.902,217.778 346.839,204.008 346.939 C 187.440 347.060,186.746 346.986,182.132 344.600 C 178.202 342.568,168.957 339.856,168.034 340.465 C 165.982 341.819,163.953 344.134,163.953 345.122 C 163.953 350.111,159.031 351.702,152.132 348.943 C 142.128 344.942,134.508 344.325,124.589 346.713 C 119.157 348.020,118.618 348.082,115.891 347.712 C 110.554 346.987,106.062 346.844,99.612 347.195 C 96.095 347.387,90.447 347.442,87.061 347.318 L 80.904 347.093 78.533 344.540 C 75.754 341.546,73.824 340.021,71.040 338.617 C 68.503 337.337,68.548 337.335,65.293 338.895 M302.713 343.263 C 301.328 343.565,298.766 344.248,297.021 344.779 C 293.943 345.717,293.645 345.737,287.137 345.431 C 271.018 344.674,269.775 345.228,269.770 353.171 C 269.767 357.010,269.723 356.950,274.225 359.207 C 279.179 361.691,279.305 361.709,292.829 361.840 C 316.601 362.070,333.563 362.349,338.760 362.595 C 350.808 363.167,357.535 361.751,361.347 357.843 L 362.810 356.343 361.414 353.555 C 360.647 352.021,359.193 349.867,358.183 348.769 L 356.346 346.771 349.975 346.234 C 341.521 345.521,333.049 345.836,325.044 347.161 L 318.886 348.181 316.129 347.313 C 314.613 346.836,311.867 345.589,310.028 344.541 C 306.381 342.463,306.380 342.463,302.713 343.263 M144.839 355.854 L 145.930 356.281 144.961 356.653 C 144.428 356.858,143.384 356.911,142.642 356.773 L 141.291 356.520 142.254 355.987 C 143.441 355.330,143.494 355.327,144.839 355.854 M99.225 356.188 C 101.235 356.414,100.609 356.475,96.124 356.491 C 92.792 356.504,90.898 356.386,91.473 356.202 C 92.669 355.819,95.889 355.813,99.225 356.188 M345.155 356.202 C 345.681 356.428,345.059 356.529,343.217 356.516 C 341.185 356.502,340.796 356.423,341.667 356.202 C 343.233 355.803,344.227 355.803,345.155 356.202 " stroke="none" fill="#acacac" fill-rule="evenodd"></path><path id="path4" d="M0.000 193.798 L 0.000 387.597 200.000 387.597 L 400.000 387.597 400.000 193.798 L 400.000 0.000 200.000 0.000 L 0.000 0.000 0.000 193.798 M245.702 11.804 C 247.932 12.934,249.648 14.571,250.974 16.834 L 251.942 18.486 250.955 25.813 C 249.453 36.960,247.694 43.030,244.712 47.358 C 244.171 48.143,243.230 50.490,242.620 52.572 L 241.512 56.359 242.050 62.191 C 242.346 65.399,242.692 69.942,242.818 72.287 C 242.944 74.632,243.143 77.690,243.260 79.083 L 243.473 81.616 245.602 82.731 C 248.804 84.407,250.979 86.752,252.743 90.429 L 254.283 93.638 253.277 97.497 C 252.723 99.620,251.599 103.994,250.780 107.217 C 249.355 112.816,248.185 115.763,246.580 117.787 L 245.845 118.713 247.377 120.246 C 249.165 122.033,251.362 126.426,252.007 129.502 C 252.820 133.376,250.055 137.905,244.650 141.552 C 241.791 143.481,241.774 143.503,242.022 144.906 C 243.608 153.879,243.742 155.876,243.199 162.360 C 242.837 166.670,242.791 168.946,243.054 169.437 C 243.873 170.968,253.335 175.107,259.391 176.584 C 261.465 177.090,264.518 178.012,266.174 178.634 C 268.198 179.394,271.157 180.037,275.194 180.595 C 282.120 181.552,283.925 182.358,287.247 185.977 C 289.185 188.088,291.860 192.443,291.860 193.487 C 291.860 194.427,288.106 199.141,284.387 202.874 C 281.379 205.892,281.031 206.377,281.632 206.714 C 286.454 209.412,289.645 216.510,288.579 222.164 C 287.086 230.080,285.583 233.561,282.530 236.175 C 281.412 237.132,280.557 238.542,279.071 241.882 C 276.297 248.119,276.326 248.068,274.670 249.737 C 268.615 255.840,243.459 257.710,236.706 252.559 C 232.637 249.456,231.417 245.855,231.337 236.717 L 231.278 230.039 230.967 236.603 C 230.515 246.105,228.779 248.514,220.981 250.460 C 219.994 250.706,217.965 251.412,216.473 252.028 C 204.394 257.013,186.019 256.654,181.847 251.351 C 181.114 250.418,177.668 248.881,171.866 246.899 L 168.731 245.828 168.004 247.179 C 165.101 252.570,152.681 256.580,142.054 255.557 C 129.193 254.320,126.468 252.805,123.874 245.453 C 122.612 241.877,126.090 232.497,130.202 228.385 C 131.675 226.912,133.900 220.615,134.901 215.091 C 136.568 205.887,138.666 200.602,142.051 197.079 C 143.672 195.393,144.291 194.393,144.765 192.699 C 145.104 191.492,146.001 188.428,146.760 185.892 C 148.329 180.648,148.313 180.308,146.124 172.674 C 144.677 167.628,144.157 166.545,141.855 163.788 C 140.752 162.467,139.496 160.365,138.897 158.841 L 137.858 156.191 139.006 154.772 C 140.208 153.286,142.640 151.471,149.903 146.636 C 152.301 145.039,154.264 143.688,154.264 143.633 C 154.264 143.577,153.905 142.502,153.467 141.243 C 153.029 139.984,152.244 137.209,151.721 135.078 L 150.772 131.202 151.849 129.663 C 152.442 128.817,153.699 127.536,154.643 126.816 C 157.005 125.015,160.186 120.651,162.220 116.421 C 163.545 113.667,164.364 112.506,165.910 111.189 C 171.261 106.631,171.679 106.174,171.492 105.099 C 171.394 104.533,171.153 101.776,170.957 98.972 C 170.547 93.095,170.354 92.609,167.103 89.273 C 163.845 85.929,161.844 81.644,159.467 72.921 C 157.518 65.763,160.538 59.552,167.118 57.185 C 168.654 56.633,169.176 56.199,169.818 54.940 C 171.514 51.615,175.186 48.430,179.100 46.887 C 181.791 45.827,183.541 44.350,184.857 42.031 C 187.437 37.484,190.320 36.097,205.335 32.181 C 206.313 31.926,207.770 31.055,208.904 30.048 C 212.329 27.006,217.292 24.884,228.051 21.859 C 232.181 20.697,233.759 19.694,235.484 17.134 C 237.024 14.846,239.017 13.125,241.646 11.811 C 243.949 10.660,243.445 10.661,245.702 11.804 M174.031 142.272 C 170.727 142.889,167.359 143.397,166.547 143.402 C 165.663 143.407,165.167 143.566,165.310 143.798 C 165.442 144.012,166.092 144.186,166.756 144.186 C 167.419 144.186,170.848 144.727,174.375 145.389 C 181.364 146.699,182.764 146.686,185.557 145.287 C 188.122 144.003,188.012 143.684,184.528 142.308 C 180.875 140.864,181.570 140.867,174.031 142.272 M204.913 161.337 C 203.726 162.929,202.934 165.476,202.166 170.172 C 201.549 173.946,200.390 177.963,199.324 180.028 C 198.996 180.661,198.484 182.231,198.185 183.516 C 197.582 186.108,196.206 188.377,194.773 189.144 C 192.874 190.161,192.200 194.173,193.179 198.643 C 193.672 200.896,193.701 200.936,194.123 199.898 C 196.865 193.152,204.417 192.595,217.529 198.170 C 224.028 200.933,227.155 204.562,230.464 213.178 C 230.832 214.138,231.164 214.966,231.201 215.020 C 231.400 215.310,243.547 211.264,243.840 210.810 C 244.488 209.809,245.359 206.424,245.972 202.523 C 246.308 200.389,246.834 197.541,247.143 196.194 C 247.967 192.597,246.602 190.594,241.860 188.444 C 238.470 186.906,236.405 185.326,234.517 182.824 C 233.298 181.210,232.219 180.348,229.766 179.030 C 225.837 176.919,223.462 174.591,221.573 170.996 C 220.063 168.122,219.591 167.703,216.667 166.645 C 213.261 165.413,210.292 163.735,208.303 161.919 C 205.906 159.730,206.089 159.761,204.913 161.337 M180.688 218.857 C 179.489 224.275,178.941 231.970,179.610 233.985 C 180.827 237.649,181.141 237.686,182.150 234.288 C 183.386 230.124,183.219 219.093,181.899 217.774 L 181.103 216.978 180.688 218.857 M246.162 261.337 C 247.873 262.645,249.387 265.152,249.802 267.364 C 249.935 268.069,250.741 269.552,251.594 270.660 C 252.448 271.768,253.877 274.195,254.771 276.054 L 256.395 279.434 258.915 280.008 C 260.300 280.323,263.091 280.780,265.116 281.022 C 267.141 281.265,271.614 282.252,275.056 283.216 L 281.314 284.969 289.010 283.222 L 296.705 281.476 301.574 278.530 C 306.156 275.758,306.597 275.380,309.080 272.103 C 312.244 267.926,314.383 265.888,316.995 264.565 L 318.943 263.578 321.057 265.510 C 323.521 267.762,324.100 268.886,326.507 276.095 C 328.097 280.855,329.863 284.370,331.026 285.089 C 331.243 285.223,334.424 284.806,338.094 284.162 C 352.929 281.558,356.984 281.753,360.469 285.239 C 364.794 289.563,365.407 292.634,365.472 310.292 L 365.504 318.840 364.406 320.571 C 363.008 322.777,361.216 324.287,358.534 325.519 L 356.410 326.495 348.457 325.820 C 335.943 324.756,331.449 324.545,327.907 324.857 C 319.435 325.602,318.213 325.519,315.921 324.050 C 312.450 321.823,309.648 316.474,307.959 308.848 C 306.514 302.325,304.822 303.070,299.995 312.355 C 295.224 321.531,294.880 321.746,278.497 325.769 C 267.166 328.551,265.246 328.354,258.582 323.718 L 256.117 322.003 250.055 322.434 C 225.952 324.145,218.483 324.052,211.074 321.948 L 206.062 320.526 204.872 321.646 C 203.043 323.369,200.504 324.671,197.016 325.676 C 193.604 326.658,193.952 326.665,182.752 325.384 C 180.779 325.159,179.868 325.294,176.744 326.279 C 174.719 326.918,172.090 327.734,170.902 328.092 L 168.742 328.745 164.507 327.393 C 156.118 324.716,156.566 324.786,149.965 325.100 C 143.452 325.410,141.510 325.266,135.341 324.015 L 131.341 323.204 125.002 324.019 C 118.916 324.802,118.414 324.810,112.427 324.239 C 108.997 323.911,103.446 323.640,100.091 323.635 C 93.554 323.626,89.921 323.054,84.081 321.113 L 81.146 320.138 78.620 321.088 C 77.231 321.611,74.395 322.902,72.319 323.956 L 68.543 325.874 67.246 324.087 C 63.776 319.305,61.681 309.670,61.924 299.612 C 62.104 292.158,61.195 282.631,59.331 272.439 L 58.621 268.557 60.074 266.624 C 63.629 261.893,66.623 260.787,74.612 261.256 C 93.995 262.392,96.551 263.295,100.036 270.240 C 102.150 274.454,105.902 280.678,106.456 280.891 C 107.997 281.482,116.804 279.531,119.012 278.109 C 124.795 274.386,128.766 273.574,137.597 274.314 C 145.812 275.002,147.610 275.739,151.955 280.202 C 155.945 284.301,155.387 284.148,162.403 283.074 C 169.281 282.022,169.689 282.061,176.853 284.467 L 181.202 285.928 182.946 285.181 C 186.064 283.847,190.291 282.586,193.728 281.965 C 200.598 280.724,204.927 277.884,207.594 272.868 C 211.140 266.199,215.000 263.692,220.930 264.209 C 221.890 264.292,224.633 264.533,227.028 264.745 C 231.983 265.183,234.224 264.666,240.504 261.638 C 244.323 259.797,244.158 259.806,246.162 261.337 M71.998 334.051 C 75.209 335.223,77.483 336.510,80.079 338.626 C 80.971 339.354,82.110 339.922,82.674 339.922 C 83.226 339.922,86.035 340.269,88.915 340.692 C 91.795 341.115,94.378 341.385,94.654 341.292 C 95.692 340.940,110.280 339.511,120.576 338.753 C 137.573 337.501,145.957 338.550,153.833 342.913 C 155.946 344.083,156.358 344.197,156.642 343.690 C 158.756 339.912,166.267 333.721,168.736 333.721 C 169.153 333.721,172.128 334.491,175.348 335.433 C 178.567 336.375,182.684 337.436,184.496 337.790 C 186.308 338.144,189.128 338.769,190.762 339.178 C 194.126 340.021,202.825 340.163,212.597 339.536 C 216.138 339.309,220.514 339.336,225.194 339.615 C 233.835 340.129,242.222 339.662,250.000 338.236 C 259.710 336.455,267.660 336.181,275.221 337.366 C 284.096 338.756,291.270 338.757,299.895 337.367 L 306.185 336.353 309.003 337.191 C 310.553 337.652,313.423 338.815,315.381 339.775 L 318.941 341.521 323.908 340.237 L 328.876 338.953 342.338 339.039 C 355.101 339.120,355.881 339.166,357.374 339.928 C 362.038 342.307,365.834 348.220,367.246 355.301 C 367.859 358.381,363.922 362.746,358.902 364.551 C 356.876 365.279,343.358 366.796,341.687 366.482 C 341.059 366.364,336.786 366.305,332.191 366.351 C 296.661 366.702,277.427 365.662,270.912 363.036 C 268.776 362.175,268.744 362.174,266.067 362.858 C 263.061 363.626,253.031 365.235,247.093 365.901 C 244.039 366.244,240.666 366.206,231.181 365.720 C 220.257 365.160,218.539 365.159,212.577 365.706 C 202.911 366.593,185.940 365.324,172.794 362.733 L 168.649 361.916 166.102 363.733 C 164.702 364.733,161.980 367.110,160.054 369.015 C 155.941 373.086,156.467 372.989,151.666 370.556 C 149.100 369.255,146.674 368.369,144.186 367.822 C 142.161 367.377,138.585 366.484,136.240 365.839 C 129.228 363.908,121.268 363.679,112.465 365.155 C 108.769 365.775,105.574 366.176,105.365 366.047 C 105.156 365.918,99.372 365.817,92.512 365.822 C 73.647 365.837,62.564 363.779,56.150 359.071 C 53.578 357.183,53.213 356.322,52.167 349.696 L 51.266 343.992 52.244 342.154 C 54.660 337.609,58.831 334.897,65.504 333.533 C 68.919 332.836,68.598 332.810,71.998 334.051 " stroke="none" fill="#fbfbfc" fill-rule="evenodd"></path></g></svg>